<svg width="22" height="22" viewBox="0 0 22 22" fill="none" xmlns="http://www.w3.org/2000/svg">
<path d="M0.0141602 0.180664V21.264H21.0975V0.180664H0.0141602ZM1.93083 2.09733H19.1808V19.3473H1.93083V2.09733ZM10.5558 4.014C8.70625 4.014 7.20166 5.51858 7.20166 7.36817C7.20166 9.21775 8.70625 10.7223 10.5558 10.7223C12.4054 10.7223 13.91 9.21775 13.91 7.36817C13.91 5.51858 12.4054 4.014 10.5558 4.014ZM10.5558 5.93067C11.3484 5.93067 11.9933 6.57562 11.9933 7.36817C11.9933 8.16071 11.3484 8.80567 10.5558 8.80567C9.76329 8.80567 9.11833 8.16071 9.11833 7.36817C9.11833 6.57562 9.76329 5.93067 10.5558 5.93067ZM7.54606 10.7317C7.30325 10.7661 7.07389 10.8929 6.91529 11.1042C6.59712 11.5268 6.68171 12.128 7.10433 12.4462C7.77508 12.9512 8.53774 13.2824 9.34294 13.4551L7.00326 15.7948C6.62855 16.1695 6.62855 16.7752 7.00326 17.1499C7.37797 17.5246 7.98369 17.5246 8.3584 17.1499L10.5558 14.9525L12.7533 17.1499C12.9401 17.3368 13.1855 17.4307 13.4308 17.4307C13.6762 17.4307 13.9215 17.3368 14.1084 17.1499C14.4831 16.7752 14.4831 16.1695 14.1084 15.7948L11.7687 13.4551C12.5731 13.2825 13.3343 12.9516 14.0055 12.4481C14.4281 12.1299 14.5136 11.5287 14.1964 11.106C13.8792 10.6815 13.2798 10.597 12.8543 10.9151C11.5194 11.9185 9.5885 11.9166 8.25546 10.9151C8.04462 10.756 7.78888 10.6973 7.54606 10.7317Z" fill="#E7EDC7"/>
</svg>
