<svg width="30" height="32" viewBox="0 0 30 32" fill="none" xmlns="http://www.w3.org/2000/svg">
<path fill-rule="evenodd" clip-rule="evenodd" d="M18.9803 1.52544C16.9708 3.52062 17.029 5.64816 19.2174 10.2524C20.1928 12.3029 21.1832 14.7492 21.419 15.6893C21.9683 17.879 22.9343 17.879 23.4661 15.6893C23.6945 14.7492 24.6848 12.3806 25.6677 10.4258C26.6506 8.47037 27.4545 6.01103 27.4545 4.96031C27.4545 2.41647 25.0158 0 22.4495 0C21.2307 0 19.9482 0.563573 18.9803 1.52544ZM8.12556 4.12272C2.51112 6.90144 -0.422475 12.1817 0.0492536 18.6588C0.396481 23.4308 2.94031 27.5722 7.08889 30.1198C9.79976 31.7838 10.7019 32 14.9418 32C19.1818 32 20.0839 31.7838 22.7948 30.1198C28.5581 26.5805 31.4048 18.9763 29.317 12.695C28.5788 10.4724 28.4881 10.4103 27.6428 11.5417C27.1517 12.1998 26.8596 13.5071 26.9934 14.4466C27.1549 15.5737 26.9553 16.1553 26.4078 16.1553C25.3005 16.1553 25.3374 18.4941 26.4491 18.7508C27.1592 18.9142 27.188 19.3529 26.6055 21.1262C26.0381 22.8517 25.5188 23.3432 24.0917 23.5048C22.4063 23.6962 22.3106 23.5887 22.5758 21.796C22.8186 20.1544 22.6634 19.8835 21.481 19.8835C20.4506 19.8835 20.0089 20.3539 19.728 21.7476C19.3544 23.603 19.3332 23.6117 15.0244 23.6117C10.4085 23.6117 9.93678 23.2898 9.93678 20.1432C9.93678 18.688 10.0832 18.6408 14.629 18.6408C18.904 18.6408 19.3213 18.5302 19.3213 17.3981C19.3213 16.2659 18.904 16.1553 14.629 16.1553C10.0832 16.1553 9.93678 16.1081 9.93678 14.6529C9.93678 11.6915 10.5055 11.1845 13.8245 11.1845C16.4196 11.1845 16.8882 11.0173 16.5729 10.2015C16.3639 9.66089 16.1931 9.10167 16.1931 8.95876C16.1931 8.81584 15.2077 8.69903 14.0034 8.69903C11.3238 8.69903 11.26 8.06214 13.6906 5.59223C14.7229 4.54338 15.5675 3.41561 15.5675 3.08567C15.5675 1.92311 11.3951 2.5047 8.12556 4.12272ZM24.3013 3.38765C25.9636 5.37662 23.5224 8.43184 21.3546 7.07604C19.1887 5.72085 19.9601 2.48544 22.4495 2.48544C23.0532 2.48544 23.8865 2.89118 24.3013 3.38765ZM8.91199 7.76699C8.71366 8.27961 8.12494 8.69903 7.60379 8.69903C6.83175 8.69903 6.80047 8.52567 7.43424 7.76699C7.8628 7.25437 8.45152 6.83495 8.74244 6.83495C9.03336 6.83495 9.10969 7.25437 8.91199 7.76699ZM7.42548 12.2718C7.40296 15.1835 6.69286 16.1553 4.58948 16.1553C2.5887 16.1553 2.5349 16.0913 3.04917 14.3118C3.82996 11.6076 4.2166 11.1845 5.90707 11.1845C6.9475 11.1845 7.43174 11.5312 7.42548 12.2718ZM7.04009 20.0388C7.77458 22.7623 7.50556 23.6117 5.90707 23.6117C4.2166 23.6117 3.82996 23.1885 3.04917 20.4843C2.5349 18.7048 2.5887 18.6408 4.58948 18.6408C6.2105 18.6408 6.74479 18.9459 7.04009 20.0388ZM8.91199 27.0291C9.10969 27.5417 9.03336 27.9612 8.74244 27.9612C8.45152 27.9612 7.8628 27.5417 7.43424 27.0291C6.80047 26.2704 6.83175 26.0971 7.60379 26.0971C8.12494 26.0971 8.71366 26.5165 8.91199 27.0291ZM18.07 26.7184C18.07 27.0602 17.5069 27.899 16.8188 28.5825C16.1306 29.266 15.2859 29.8252 14.9418 29.8252C14.5978 29.8252 13.7531 29.266 13.0649 28.5825C11.1267 26.6576 11.5497 26.0971 14.9418 26.0971C16.6623 26.0971 18.07 26.3767 18.07 26.7184ZM22.4495 27.0291C22.0209 27.5417 21.4322 27.9612 21.1413 27.9612C20.8503 27.9612 20.774 27.5417 20.9717 27.0291C21.17 26.5165 21.7588 26.0971 22.2799 26.0971C23.0519 26.0971 23.0832 26.2704 22.4495 27.0291Z" fill="black"/>
</svg>
