<svg width="15" height="15" viewBox="0 0 15 15" fill="none" xmlns="http://www.w3.org/2000/svg">
<path fill-rule="evenodd" clip-rule="evenodd" d="M0.379809 0.315453C-0.0349002 0.609326 -0.0542197 0.708233 0.0601958 1.95378C0.34886 5.09792 1.86608 8.16897 4.39504 10.7286C5.73558 12.0854 6.43651 12.6234 7.79937 13.3417C9.75493 14.3726 11.9217 15 13.5267 15C14.5349 15 14.642 14.9594 14.8097 14.5131C15.1028 13.7326 15.0426 10.5325 14.7299 10.2697C14.5855 10.1484 13.9536 9.96543 13.3256 9.86311C12.6978 9.76078 11.9663 9.59315 11.7004 9.49083C10.9351 9.19639 10.7764 9.25258 9.75962 10.1779L8.80003 11.0511L7.87439 10.4499C6.85722 9.78926 4.58636 7.45099 4.26168 6.72998C4.07768 6.32125 4.14914 6.17336 4.94855 5.30845C5.61947 4.5825 5.8151 4.24041 5.73801 3.92888C5.68156 3.70107 5.49455 2.91665 5.32237 2.18576C4.76886 -0.164653 4.96562 0.00259593 2.75271 0.00259593C1.26231 0.00259593 0.720242 0.073976 0.379809 0.315453Z" fill="white"/>
</svg>
