<svg width="18" height="18" viewBox="0 0 18 18" fill="none" xmlns="http://www.w3.org/2000/svg">
<path d="M8.99996 0.666748C4.40745 0.666748 0.666626 4.40758 0.666626 9.00008C0.666626 13.5926 4.40745 17.3334 8.99996 17.3334C13.5925 17.3334 17.3333 13.5926 17.3333 9.00008C17.3333 4.40758 13.5925 0.666748 8.99996 0.666748ZM8.99996 2.33341C12.6917 2.33341 15.6666 5.30831 15.6666 9.00008C15.6666 12.6919 12.6917 15.6667 8.99996 15.6667C5.30819 15.6667 2.33329 12.6919 2.33329 9.00008C2.33329 5.30831 5.30819 2.33341 8.99996 2.33341ZM4.37105 6.08342C4.05355 6.08342 3.99996 6.23901 3.99996 6.40568C3.99996 6.70651 4.24954 8.3305 5.61454 10.198C6.60371 11.553 7.90764 12.3334 9.06181 12.3334C9.76097 12.3334 9.83329 12.1552 9.83329 11.8777V10.6391C9.83329 10.3049 9.91027 10.2501 10.1328 10.2501C10.2919 10.2501 10.6145 10.3542 11.2395 11.0834C11.9604 11.9242 12.0909 12.3334 12.5042 12.3334H13.5963C13.8496 12.3334 13.9958 12.2276 14.0016 12.0209C14.0024 11.9684 13.9947 11.9085 13.9772 11.8435C13.8963 11.6035 13.5266 11.0176 13.0641 10.4584C12.8074 10.1484 12.5549 9.84137 12.4391 9.67554C12.3599 9.56637 12.33 9.49008 12.3333 9.41675C12.3366 9.34008 12.3766 9.26534 12.4375 9.16284C12.4266 9.16284 13.8364 7.18465 13.9739 6.51799C13.9931 6.45465 14.0025 6.3955 14 6.34383C13.9933 6.193 13.8893 6.08342 13.6451 6.08342H12.5546C12.2796 6.08342 12.1519 6.24957 12.0778 6.41707C12.0778 6.41707 11.3987 7.81633 10.6145 8.73967C10.3604 9.00633 10.2312 9.00008 10.0937 9.00008C10.0204 9.00008 9.83329 8.91142 9.83329 8.66642V6.50659C9.83329 6.21743 9.76226 6.08342 9.52893 6.08342H7.59208C7.42208 6.08342 7.33329 6.21618 7.33329 6.35034C7.33329 6.62784 7.70746 6.69585 7.74996 7.47502V8.98381C7.74996 9.35047 7.68726 9.41675 7.54976 9.41675C7.17893 9.41675 6.44876 8.16608 5.9596 6.52775C5.85376 6.20525 5.74794 6.08342 5.47294 6.08342H4.37105Z" fill="black"/>
</svg>
