<svg width="16" height="16" viewBox="0 0 16 16" fill="none" xmlns="http://www.w3.org/2000/svg">
<path d="M3.83333 2C3.71687 2.00006 3.60246 2.03063 3.50149 2.08865C3.40052 2.14668 3.3165 2.23014 3.25781 2.33073L2.09115 4.33073C2.03155 4.43266 2.0001 4.54859 2 4.66667V12.6667C2 13.3954 2.60462 14 3.33333 14H12.6667C13.3954 14 14 13.3954 14 12.6667V4.66667C13.9999 4.54859 13.9684 4.43266 13.9089 4.33073L12.7422 2.33073C12.6835 2.23014 12.5995 2.14668 12.4985 2.08865C12.3975 2.03063 12.2831 2.00006 12.1667 2H3.83333ZM4.21615 3.33333H11.7839L12.5612 4.66667H3.4388L4.21615 3.33333ZM3.33333 6H12.6667V12.6667H3.33333V6ZM6 7.33333V8.66667H10V7.33333H6Z" fill="#E7EDC7"/>
</svg>
