<svg width="87" height="31" viewBox="0 0 87 31" fill="none" xmlns="http://www.w3.org/2000/svg">
<path d="M18.3006 22.8208C18.3006 22.8208 18.669 22.5754 18.669 21.7166C18.669 20.8577 18.1777 20.6123 18.1777 20.6123H16.4582V0.49077C16.4582 0.49077 16.3354 0 15.3528 0C14.3702 0 14.2474 0.490804 14.2474 0.490804V9.32467C13.5013 8.3163 12.5985 7.61188 11.7207 7.15154C10.6235 6.60351 9.4824 6.3295 8.29741 6.3295C6.03715 6.3295 4.29879 7.11617 2.7021 8.46579C1.1054 9.81541 0 12.3578 0 14.813C0 17.1585 1.1054 19.14 2.70161 20.6988C4.29879 22.0847 6.06973 22.8208 8.35194 22.8208C9.55888 22.8208 10.7376 22.6108 11.791 22.0847C12.6687 21.6462 13.5452 21.1431 14.2474 20.2443V22.8208L18.3006 22.8208ZM14.2474 14.7231C14.2474 16.5864 13.6032 17.5663 12.5279 18.772C11.4526 19.9776 10.0636 20.6124 8.35194 20.6124C6.72806 20.6124 5.03573 19.8762 4.17597 19.0173C3.13017 17.9727 2.21081 16.5666 2.21081 14.813C2.21081 12.9716 2.94774 11.2877 4.21577 10.1438C5.4042 9.07925 6.72806 8.58848 8.35194 8.58848C9.99776 8.58848 11.4087 9.20129 12.5279 10.4289C13.669 11.6565 14.2474 12.8818 14.2474 14.7231Z" fill="#E7EDC7"/>
<path d="M23.3376 1.60874C23.3376 1.21416 23.184 0.841507 22.8768 0.49077C22.5257 0.183875 22.1526 0.0304279 21.7576 0.0304279C21.3626 0.0304279 20.9896 0.183875 20.6385 0.49077C20.3312 0.841507 20.1776 1.22512 20.1776 1.64163C20.1776 2.0362 20.3312 2.40886 20.6385 2.7596C20.9896 3.0665 21.3626 3.21994 21.7576 3.21994C22.1526 3.21994 22.5257 3.0665 22.8768 2.7596C23.184 2.40886 23.3376 2.02524 23.3376 1.60874ZM25.0558 22.8208C25.0558 22.8208 25.5471 22.6981 25.5471 21.7166C25.5471 20.735 25.0558 20.6123 25.0558 20.6123H23.3363V6.38004H19.406C19.406 6.38004 18.9147 6.71545 18.9147 7.48425C18.9147 8.25304 19.406 8.58848 19.406 8.58848H21.1255V22.8208H25.0558Z" fill="#E7EDC7"/>
<path d="M44.2161 8.58848C44.2161 8.58848 44.7074 8.34309 44.7074 7.48425C44.7074 6.6254 44.2161 6.38001 44.2161 6.38001H40.2858V9.32464C39.4081 8.1409 38.5303 7.55953 37.6525 7.12111C36.5992 6.595 35.502 6.33195 34.3609 6.33195C32.1445 6.33195 29.757 7.23886 28.4949 8.58848C26.9368 10.2545 25.7928 11.7785 25.7928 14.9685C25.7928 17.7904 27.1192 19.1996 28.6334 20.7341C30.1914 22.2905 32.0896 22.8208 34.3279 22.8208C35.5349 22.8208 36.7672 22.4092 37.9522 21.8393C38.8519 21.3789 39.6056 20.8407 40.2858 19.8762V23.0662C40.2858 24.6884 39.7592 25.9623 38.7058 26.8172C37.6306 27.694 36.2371 28.1325 34.5254 28.1325C34.2621 28.1325 33.9439 28.0996 33.5709 28.0338C33.2198 27.99 32.8687 27.9352 32.5175 27.8694C32.1884 27.8036 31.8812 27.7379 31.5959 27.6721C31.5959 27.6721 30.9258 27.7904 30.8285 28.5874C30.7312 29.3843 31.0034 29.645 31.0034 29.645C31.2887 29.7108 31.6178 29.7875 31.9909 29.8752C32.3859 29.9629 32.7918 30.0396 33.2088 30.1053C33.6477 30.1711 34.0317 30.204 34.3609 30.204C36.7528 30.204 38.7058 29.5464 40.22 28.2311C41.7561 26.9158 42.4966 25.2802 42.4966 23.0662V8.58848H44.2161ZM40.0402 14.8458C40.0402 16.6433 39.4398 17.689 38.3207 18.8947C37.4609 19.8209 35.9957 20.6124 34.3279 20.6124C32.6382 20.6124 31.5654 20.367 30.2463 19.3531C29.171 18.1474 28.0036 17.545 28.0036 14.8458C28.0036 12.0239 28.9724 11.3103 30.0915 10.0608C31.3198 8.83387 32.737 8.58848 34.3609 8.58848C35.9628 8.58848 37.2804 9.17937 38.4435 10.4289C39.5846 11.7003 40.0402 13.0483 40.0402 14.8458Z" fill="#E7EDC7"/>
<path d="M63.3765 8.58848C63.3765 8.58848 63.8678 8.2204 63.8678 7.48425C63.8678 6.74809 63.3765 6.38001 63.3765 6.38001H59.4461V9.32464C58.5684 8.1409 57.5256 7.55953 56.6478 7.12111C55.5945 6.595 54.9017 6.33195 53.3562 6.33195C51.1398 6.33195 49.1291 6.99348 47.4095 8.71117C45.8515 10.3772 44.9531 12.4564 44.9531 14.8458C44.9531 17.1694 46.1145 19.1996 47.6287 20.7341C49.1867 22.2905 51.0667 22.8208 53.305 22.8208C54.512 22.8208 55.6819 22.5319 56.8669 21.962C57.7666 21.5016 58.7659 20.8407 59.4461 19.8762V23.0662C59.4461 24.6884 58.7545 25.9623 57.7011 26.8172C56.6259 27.694 55.2324 28.1325 53.5207 28.1325C53.2574 28.1325 52.9392 28.0996 52.5662 28.0338C52.215 27.99 51.8639 27.9352 51.5128 27.8694C51.1837 27.8036 50.8764 27.7379 50.5912 27.6721C50.5912 27.6721 49.9888 27.9739 49.8505 28.5599C49.6203 29.3235 49.9987 29.645 49.9987 29.645C49.9987 29.645 50.6131 29.7875 50.9862 29.8752C51.3812 29.9629 51.7871 30.0396 52.2041 30.1053C52.643 30.1711 53.027 30.204 53.3562 30.204C55.7481 30.204 57.7011 29.5464 59.2153 28.2311C60.7514 26.9158 61.657 25.2802 61.657 23.0662V8.58848H63.3765ZM59.2005 14.7231C59.2005 16.5206 58.6002 17.5663 57.481 18.772C56.3618 19.9557 54.9728 20.6124 53.305 20.6124C51.6153 20.6124 50.4801 20.2443 49.2519 19.14C48.1766 17.9344 47.1639 16.6653 47.1639 14.8458C47.1639 13.0264 47.9008 11.2877 49.1291 10.1835C50.2482 8.93398 51.6811 8.58848 53.305 8.58848C54.907 8.58848 56.2528 9.20194 57.481 10.3062C58.7092 11.4104 59.2005 12.9256 59.2005 14.7231Z" fill="#E7EDC7"/>
<path d="M85.9758 22.6981C85.9758 22.6981 86.59 22.2074 86.4671 21.4712C86.3394 20.7058 85.7302 20.6123 85.7302 20.6123L83.8879 20.9804C83.5148 20.9804 83.2256 20.8096 83.0281 20.6123C82.8525 20.3931 82.7824 20.2109 82.7824 19.6628V8.58848H85.9758C85.9758 8.58848 86.4671 8.34309 86.4671 7.48425C86.4671 6.6254 85.9758 6.38001 85.9758 6.38001H82.7824V2.45385C82.7824 2.45385 82.414 1.96308 81.677 1.96308C80.9401 1.96308 80.5716 2.45385 80.5716 2.45385V6.38001H78.8521C78.8521 6.38001 78.3608 6.87078 78.3608 7.48425C78.3608 8.09771 78.8521 8.58848 78.8521 8.58848H80.5716V19.9989C80.5716 20.5031 80.5847 21.1993 80.6945 21.5939C80.8261 21.9885 80.9771 22.0932 81.2404 22.3782C81.7671 22.9262 82.488 23.0662 83.5194 23.0662L85.9758 22.6981Z" fill="#E7EDC7"/>
<path d="M78.0788 8.7947C75.9384 7.12101 74.2785 6.2577 71.8297 6.38002C69.3816 6.50229 67.5393 7.71799 66.0793 9.40627C64.5764 11.1442 63.9582 13.0966 64.1613 15.2373C64.3644 17.378 65.0045 19.3135 66.794 20.8577C68.6 22.4163 70.6079 23.0662 72.6894 23.0662C74.8572 23.0662 77.3442 21.5154 78.4462 20.0476C78.5763 19.8743 78.4643 19.265 78.0936 18.8947C77.4795 18.2812 76.9768 18.4575 76.9768 18.4575C75.63 19.803 74.7729 20.4145 73.1811 20.6592C71.5587 20.9085 70.2365 20.6767 68.7731 19.5584L78.0788 8.7947ZM74.6546 9.20194L67.2852 17.9131C66.4281 16.69 66.4467 16.1336 66.3242 15.0327C66.189 13.8171 66.5117 12.2147 67.6711 10.874C68.7732 9.59955 69.8751 9.03932 70.9771 8.79469C72.4583 8.4659 73.2688 8.29508 74.6546 9.20194Z" fill="#E7EDC7"/>
</svg>
