<svg width="22" height="22" viewBox="0 0 22 22" fill="none" xmlns="http://www.w3.org/2000/svg">
<path d="M11.3335 0.0737305C5.45248 0.0737305 0.685303 4.84091 0.685303 10.7219C0.685303 16.6029 5.45248 21.37 11.3335 21.37C17.2144 21.37 21.9816 16.6029 21.9816 10.7219C21.9816 4.84091 17.2144 0.0737305 11.3335 0.0737305ZM11.3335 2.20336C16.0378 2.20336 19.852 6.01753 19.852 10.7219C19.852 14.9113 16.8238 18.3866 12.8392 19.099V13.9538H15.3577L15.7321 11.0526H12.8558V9.20369C12.8558 8.36461 13.0897 7.7978 14.2929 7.7978H15.8132V5.20855C15.0731 5.13295 14.3301 5.0962 13.5858 5.09833C11.3774 5.09833 9.86518 6.44622 9.86518 8.92085V11.0567H7.36951V13.9579H9.86518V19.1052C5.86211 18.4079 2.81493 14.9244 2.81493 10.7219C2.81493 6.01753 6.6291 2.20336 11.3335 2.20336Z" fill="#E7EDC7"/>
</svg>
