<svg width="22" height="22" viewBox="0 0 22 22" fill="none" xmlns="http://www.w3.org/2000/svg">
<path d="M10.9445 0.0737305C5.07634 0.0737305 0.296387 4.85368 0.296387 10.7219C0.296387 16.5901 5.07634 21.37 10.9445 21.37C16.8127 21.37 21.5927 16.5901 21.5927 10.7219C21.5927 4.85368 16.8127 0.0737305 10.9445 0.0737305ZM10.9445 2.20336C15.6618 2.20336 19.4631 6.00462 19.4631 10.7219C19.4631 15.4391 15.6618 19.2404 10.9445 19.2404C6.22727 19.2404 2.42602 15.4391 2.42602 10.7219C2.42602 6.00462 6.22727 2.20336 10.9445 2.20336ZM5.02982 6.99503C4.62413 6.99503 4.55565 7.19385 4.55565 7.40681C4.55565 7.79121 4.87456 9.8663 6.61873 12.2526C7.88266 13.9839 9.5488 14.9811 11.0236 14.9811C11.9169 14.9811 12.0094 14.7534 12.0094 14.3988V12.8162C12.0094 12.3892 12.1077 12.3191 12.392 12.3191C12.5954 12.3191 13.0076 12.4522 13.8062 13.3839C14.7273 14.4583 14.894 14.9811 15.4222 14.9811H16.8177C17.1414 14.9811 17.3281 14.8459 17.3355 14.5818C17.3366 14.5148 17.3267 14.4382 17.3043 14.3551C17.201 14.0485 16.7286 13.2998 16.1376 12.5853C15.8096 12.1892 15.487 11.7969 15.339 11.585C15.2378 11.4455 15.1995 11.348 15.2038 11.2543C15.2081 11.1563 15.2592 11.0608 15.3369 10.9299C15.3231 10.9299 17.1245 8.40217 17.3002 7.55031C17.3246 7.46939 17.3366 7.3938 17.3334 7.32778C17.3249 7.13505 17.192 6.99503 16.8801 6.99503H15.4866C15.1353 6.99503 14.9721 7.20734 14.8773 7.42137C14.8773 7.42137 14.0096 9.20931 13.0076 10.3891C12.6829 10.7299 12.5178 10.7219 12.3421 10.7219C12.2484 10.7219 12.0094 10.6086 12.0094 10.2955V7.53576C12.0094 7.16627 11.9186 6.99503 11.6204 6.99503H9.14558C8.92836 6.99503 8.81491 7.16467 8.81491 7.3361C8.81491 7.69069 9.29301 7.77759 9.34732 8.77319V10.7011C9.34732 11.1696 9.26721 11.2543 9.09151 11.2543C8.61767 11.2543 7.68467 9.65622 7.05963 7.56279C6.9244 7.15071 6.78918 6.99503 6.43779 6.99503H5.02982Z" fill="#E7EDC7"/>
</svg>
