<svg width="38" height="38" viewBox="0 0 38 38" fill="none" xmlns="http://www.w3.org/2000/svg">
<path fill-rule="evenodd" clip-rule="evenodd" d="M0.962182 0.799148C-0.0884139 1.54363 -0.137356 1.79419 0.152496 4.94957C0.883779 12.9147 4.72741 20.6947 11.1341 27.1791C14.5301 30.6163 16.3058 31.9792 19.7584 33.7991C24.7125 36.4105 30.2016 38 34.2677 38C36.8217 38 37.093 37.8971 37.5178 36.7664C38.2605 34.7893 38.108 26.6823 37.3159 26.0167C36.95 25.7094 35.3491 25.2458 33.7583 24.9865C32.1679 24.7273 30.3147 24.3027 29.6409 24.0434C27.7023 23.2975 27.3003 23.4399 24.7244 25.7839L22.2934 27.9962L19.9485 26.4731C17.3716 24.7994 11.6188 18.8758 10.7963 17.0493C10.3301 16.0138 10.5112 15.6392 12.5363 13.4481C14.236 11.609 14.7316 10.7424 14.5363 9.95316C14.3933 9.37604 13.9195 7.38884 13.4833 5.53727C12.0811 -0.417122 12.5796 0.00657636 6.97353 0.00657636C3.19785 0.00657636 1.82461 0.187406 0.962182 0.799148Z" fill="white"/>
</svg>
