<svg width="20" height="20" viewBox="0 0 20 20" fill="none" xmlns="http://www.w3.org/2000/svg">
<g clip-path="url(#clip0)">
<path d="M6.0634 0.777344C2.9995 0.777344 0.5 3.27684 0.5 6.34075V14.3806C0.5 17.4445 2.9995 19.944 6.0634 19.944H14.1033C17.1672 19.944 19.6667 17.4445 19.6667 14.3806V6.34075C19.6667 3.27684 17.1672 0.777344 14.1033 0.777344H6.0634ZM6.0634 2.2517H14.1033C16.3695 2.2517 18.1923 4.07162 18.1923 6.34075V14.3806C18.1923 16.6469 16.3724 18.4697 14.1033 18.4697H6.0634C3.79715 18.4697 1.97436 16.6497 1.97436 14.3806V6.34075C1.97436 4.0745 3.79427 2.2517 6.0634 2.2517ZM15.6122 3.72606C15.0017 3.72606 14.5064 4.22136 14.5064 4.83183C14.5064 5.44231 15.0017 5.9376 15.6122 5.9376C16.2227 5.9376 16.718 5.44231 16.718 4.83183C16.718 4.22136 16.2227 3.72606 15.6122 3.72606ZM10.0833 5.20042C7.24116 5.20042 4.92308 7.51851 4.92308 10.3607C4.92308 13.2029 7.24116 15.5209 10.0833 15.5209C12.9255 15.5209 15.2436 13.2029 15.2436 10.3607C15.2436 7.51851 12.9255 5.20042 10.0833 5.20042ZM10.0833 6.67478C12.1279 6.67478 13.7692 8.31616 13.7692 10.3607C13.7692 12.4052 12.1279 14.0466 10.0833 14.0466C8.03882 14.0466 6.39744 12.4052 6.39744 10.3607C6.39744 8.31616 8.03882 6.67478 10.0833 6.67478Z" fill="#E7EDC7"/>
</g>
<defs>
<clipPath id="clip0">
<rect width="19.1667" height="19.1667" fill="white" transform="translate(0.5 0.777344)"/>
</clipPath>
</defs>
</svg>
