<svg width="18" height="18" viewBox="0 0 18 18" fill="none" xmlns="http://www.w3.org/2000/svg">
<path d="M8.99996 0.666748C4.39746 0.666748 0.666626 4.39758 0.666626 9.00008C0.666626 13.6026 4.39746 17.3334 8.99996 17.3334C13.6025 17.3334 17.3333 13.6026 17.3333 9.00008C17.3333 4.39758 13.6025 0.666748 8.99996 0.666748ZM8.99996 2.33341C12.6816 2.33341 15.6666 5.31841 15.6666 9.00008C15.6666 12.2787 13.2968 14.9985 10.1783 15.5561V11.5294H12.1494L12.4423 9.25887H10.1914V7.81193C10.1914 7.15526 10.3744 6.71167 11.316 6.71167H12.5058V4.6853C11.9267 4.62614 11.3452 4.59737 10.7627 4.59904C9.03432 4.59904 7.85087 5.65391 7.85087 7.59058V9.26213H5.89775V11.5326H7.85087V15.561C4.71804 15.0153 2.33329 12.289 2.33329 9.00008C2.33329 5.31841 5.31829 2.33341 8.99996 2.33341Z" fill="black"/>
</svg>
