<svg width="102" height="29" viewBox="0 0 102 29" fill="none" xmlns="http://www.w3.org/2000/svg">
<path d="M6.984 2.044H0.756V0.999998H14.328V2.044H8.172V28H6.984V2.044ZM18.106 0.999998H19.294V28H18.106V0.999998ZM30.8202 28.504C27.8202 28.504 25.4922 27.268 23.8362 24.796V22.852C24.4842 24.292 25.4202 25.42 26.6442 26.236C27.8922 27.052 29.3802 27.46 31.1082 27.46C32.3082 27.46 33.4122 27.196 34.4202 26.668C35.4522 26.14 36.2682 25.396 36.8682 24.436C37.4682 23.476 37.7682 22.372 37.7682 21.124C37.7682 19.996 37.5762 19.024 37.1922 18.208C36.8082 17.392 36.1722 16.612 35.2842 15.868C34.3962 15.1 33.1122 14.2 31.4322 13.168L30.2802 12.448C29.2242 11.8 28.3722 11.224 27.7242 10.72C27.0762 10.216 26.5122 9.628 26.0322 8.956C25.4082 8.02 25.0962 6.94 25.0962 5.716C25.0962 4.084 25.6242 2.812 26.6802 1.9C27.7362 0.987999 29.0802 0.532 30.7122 0.532C32.9202 0.532 34.6722 1.348 35.9682 2.98V4.816C35.4162 3.808 34.6602 3.016 33.7002 2.44C32.7402 1.864 31.6842 1.576 30.5322 1.576C29.3322 1.576 28.3242 1.948 27.5082 2.692C26.6922 3.436 26.2842 4.432 26.2842 5.68C26.2842 6.904 26.6562 7.96 27.4002 8.848C28.1682 9.712 29.4522 10.66 31.2522 11.692C33.4602 12.988 35.1762 14.164 36.4002 15.22C37.2642 16.012 37.8882 16.888 38.2722 17.848C38.6802 18.808 38.8842 19.876 38.8842 21.052C38.8842 22.54 38.5362 23.848 37.8402 24.976C37.1442 26.104 36.1842 26.98 34.9602 27.604C33.7362 28.204 32.3562 28.504 30.8202 28.504ZM70.9225 0.999998V28H69.7345V2.728L56.9905 28.504L44.3185 2.404V28H43.1305V0.999998H44.8225L56.9905 26.056L69.2665 0.999998H70.9225ZM101.874 28H100.614L95.5018 17.704H81.1738L76.1698 28H74.9098L88.3738 0.352L101.874 28ZM95.0698 16.66L88.3018 2.944L81.6778 16.66H95.0698Z" fill="white"/>
</svg>
