<svg width="18" height="18" viewBox="0 0 18 18" fill="none" xmlns="http://www.w3.org/2000/svg">
<path d="M0.75 0.75V17.25H17.25V0.75H0.75ZM2.25 2.25H15.75V15.75H2.25V2.25ZM9 3.75C7.5525 3.75 6.375 4.9275 6.375 6.375C6.375 7.8225 7.5525 9 9 9C10.4475 9 11.625 7.8225 11.625 6.375C11.625 4.9275 10.4475 3.75 9 3.75ZM9 5.25C9.62025 5.25 10.125 5.75475 10.125 6.375C10.125 6.99525 9.62025 7.5 9 7.5C8.37975 7.5 7.875 6.99525 7.875 6.375C7.875 5.75475 8.37975 5.25 9 5.25ZM6.64453 9.00732C6.4545 9.03423 6.275 9.13345 6.15088 9.29883C5.90188 9.62958 5.96808 10.1001 6.29883 10.3491C6.82376 10.7443 7.42062 11.0035 8.05078 11.1387L6.21973 12.9697C5.92648 13.263 5.92648 13.737 6.21973 14.0303C6.51298 14.3235 6.98702 14.3235 7.28027 14.0303L9 12.3105L10.7197 14.0303C10.866 14.1765 11.058 14.25 11.25 14.25C11.442 14.25 11.634 14.1765 11.7803 14.0303C12.0735 13.737 12.0735 13.263 11.7803 12.9697L9.94922 11.1387C10.5788 11.0036 11.1744 10.7447 11.6997 10.3506C12.0305 10.1016 12.0974 9.63104 11.8491 9.30029C11.6009 8.96804 11.1318 8.90188 10.7988 9.15088C9.75408 9.93613 8.24296 9.93463 7.19971 9.15088C7.03471 9.02638 6.83456 8.98042 6.64453 9.00732Z" fill="black"/>
</svg>
