<svg width="357" height="299" viewBox="0 0 357 299" fill="none" xmlns="http://www.w3.org/2000/svg">
<path d="M318.925 92.929C320.26 90.8195 321.829 89.3702 323.635 88.581C325.481 87.8175 327.843 87.1814 330.72 86.6727C332.828 86.3024 334.443 85.904 335.565 85.4775C336.753 85.0361 337.68 84.2881 338.348 83.2333C339.297 81.7323 339.432 80.171 338.754 78.5494C338.142 76.9129 336.842 75.466 334.855 74.2088C332.948 73.0029 330.988 72.3309 328.973 72.1929C327.025 72.0401 325.095 72.3528 323.183 73.1312L318.553 64.154C321.899 62.6353 325.461 62.0769 329.239 62.4787C333.058 62.9062 336.955 64.3771 340.931 66.8916C345.596 69.8422 348.7 73.1966 350.241 76.9547C351.824 80.7385 351.499 84.3951 349.267 87.9244C348.215 89.5877 347.007 90.8685 345.644 91.7669C344.321 92.6909 342.972 93.3426 341.596 93.7219C340.287 94.0864 338.644 94.4388 336.668 94.7793C334.32 95.1687 332.506 95.6118 331.227 96.1087C329.973 96.565 328.935 97.4422 328.114 98.7404L318.925 92.929ZM313.89 111.127C312.227 110.076 311.161 108.663 310.692 106.89C310.289 105.102 310.576 103.437 311.551 101.895C312.526 100.354 313.881 99.4224 315.618 99.1009C317.381 98.7389 319.114 99.0967 320.818 100.174C322.521 101.252 323.587 102.665 324.016 104.412C324.47 106.119 324.209 107.743 323.234 109.285C322.259 110.826 320.857 111.786 319.029 112.162C317.266 112.524 315.553 112.179 313.89 111.127Z" fill="#E7EDC7"/>
<path d="M30.4771 121.728C29.2291 119.566 28.6752 117.503 28.8153 115.538C28.9969 113.548 29.5311 111.161 30.4177 108.377C31.0695 106.338 31.4671 104.723 31.6107 103.531C31.7718 102.274 31.5403 101.105 30.9163 100.025C30.0283 98.4866 28.7088 97.6411 26.9577 97.4882C25.2242 97.2696 23.339 97.7484 21.3021 98.9244C19.3484 100.052 17.8425 101.476 16.7844 103.195C15.7439 104.849 15.124 106.704 14.9248 108.759L4.824 108.687C5.03391 105.019 6.19457 101.605 8.30598 98.4464C10.459 95.2635 13.5724 92.496 17.6461 90.144C22.4266 87.384 26.839 86.1945 30.8832 86.5754C34.9691 86.9323 38.056 88.919 40.144 92.5355C41.128 94.2398 41.701 95.9043 41.863 97.529C42.0666 99.1296 42.0168 100.627 41.7134 102.022C41.4276 103.351 40.9763 104.969 40.3597 106.877C39.6136 109.137 39.1633 110.949 39.0086 112.313C38.8299 113.635 39.1246 114.962 39.8926 116.292L30.4771 121.728ZM44.252 134.643C42.5477 135.627 40.8016 135.914 39.0136 135.506C37.2432 135.031 35.9021 134.004 34.9901 132.425C34.0781 130.845 33.8832 129.212 34.4056 127.524C34.904 125.795 36.0261 124.427 37.772 123.419C39.5179 122.411 41.2641 122.123 43.0104 122.556C44.7328 122.948 46.05 123.933 46.962 125.513C47.874 127.092 48.072 128.779 47.5561 130.574C47.0577 132.302 45.9564 133.659 44.252 134.643Z" fill="#E7EDC7"/>
<path d="M192.069 191.619C188.61 179.808 188.362 169.276 191.324 160.023C194.514 150.704 199.855 139.892 207.349 127.586C212.849 118.577 216.638 111.302 218.714 105.761C220.952 99.9273 221.205 94.0575 219.476 88.152C217.015 79.7479 211.679 74.1588 203.468 71.3845C195.418 68.3165 185.828 68.4122 174.698 71.6716C164.023 74.7979 155.148 79.863 148.074 86.8669C141.161 93.5771 136.03 101.739 132.679 111.351L84.3701 99.2343C89.6526 81.9039 99.1932 66.9024 112.992 54.2299C127.017 41.4909 145.16 31.862 167.419 25.3432C193.54 17.6937 216.066 17.1388 234.998 23.6787C254.156 30.1521 266.629 43.2693 272.416 63.0301C275.144 72.3426 275.948 80.9851 274.831 88.9576C273.94 96.8635 271.955 103.98 268.875 110.307C265.957 116.341 261.908 123.569 256.729 131.991C250.52 141.947 246.25 150.103 243.919 156.458C241.521 162.586 241.386 169.284 243.515 176.552L192.069 191.619ZM243.006 269.552C233.694 272.279 224.993 271.622 216.903 267.578C208.975 263.242 203.747 256.758 201.219 248.127C198.691 239.496 199.662 231.443 204.132 223.968C208.535 216.267 215.507 211.019 225.046 208.226C234.586 205.432 243.287 206.09 251.149 210.199C258.945 214.082 264.106 220.338 266.634 228.97C269.162 237.601 268.144 245.914 263.58 253.909C259.177 261.611 252.319 266.825 243.006 269.552Z" fill="#E7EDC7"/>
</svg>
